<?xml version="1.0" standalone="no"?>
<!DOCTYPE svg PUBLIC "-//W3C//DTD SVG 20010904//EN"
 "http://www.w3.org/TR/2001/REC-SVG-20010904/DTD/svg10.dtd">
<svg version="1.0" xmlns="http://www.w3.org/2000/svg"
 width="200.000000pt" height="200.000000pt" viewBox="0 0 200.000000 200.000000"
 preserveAspectRatio="xMidYMid meet">

<g transform="translate(0.000000,200.000000) scale(0.100000,-0.100000)"
fill="#000000" stroke="none">
<path d="M1025 1900 c-28 -7 -28 -8 12 -9 23 0 45 4 48 9 7 11 -16 11 -60 0z"/>
<path d="M1128 1893 c7 -3 16 -2 19 1 4 3 -2 6 -13 5 -11 0 -14 -3 -6 -6z"/>
<path d="M930 1883 c-8 -3 -63 -27 -122 -54 -59 -27 -119 -49 -135 -49 -26 -1
-27 -2 -10 -15 18 -13 17 -14 -10 -28 -15 -9 -41 -30 -58 -47 -35 -38 -73 -59
-135 -75 -36 -10 -41 -14 -25 -19 11 -4 28 -12 37 -17 11 -5 47 -5 95 2 96 13
130 7 218 -42 l70 -39 -49 7 c-34 4 -47 3 -43 -4 5 -8 -12 -10 -50 -7 -32 2
-95 5 -140 8 -47 2 -96 11 -114 20 -18 9 -34 14 -36 12 -8 -8 49 -40 95 -53
l47 -13 -50 5 c-35 4 -61 14 -88 36 -21 17 -40 29 -43 26 -2 -2 14 -17 36 -32
l41 -28 -34 -36 c-55 -57 -76 -108 -31 -72 15 12 41 21 58 21 25 1 28 3 14 10
-11 7 -26 6 -44 0 -27 -11 -28 -10 -11 8 12 14 29 18 56 17 22 -1 45 2 53 7 8
6 -3 8 -34 6 -49 -3 -60 4 -31 20 10 6 29 6 47 1 17 -5 47 -9 66 -10 35 0 35
0 -17 -20 -31 -12 -50 -25 -47 -32 2 -7 -11 -21 -30 -31 -19 -10 -49 -36 -66
-58 -41 -50 -86 -78 -127 -78 -26 0 -33 -4 -33 -20 0 -13 7 -20 20 -20 28 0
123 37 167 66 l38 25 -27 -25 c-15 -13 -24 -26 -21 -29 2 -3 -20 -31 -51 -61
-51 -51 -56 -60 -56 -101 0 -40 18 -75 40 -75 4 0 11 20 14 44 4 25 16 56 27
69 24 31 25 44 2 26 -16 -13 -17 -12 -5 3 8 10 18 16 22 15 5 -1 29 18 55 42
33 32 47 54 51 82 8 46 24 52 24 9 0 -16 5 -30 11 -30 6 0 9 7 5 15 -4 10 1
15 14 15 11 0 20 -6 20 -14 0 -8 3 -21 6 -29 4 -12 -1 -15 -19 -13 -18 2 -27
-3 -30 -15 -4 -16 -2 -17 15 -8 28 15 71 -5 100 -47 13 -19 27 -34 31 -34 5 0
6 38 2 83 l-7 84 46 1 c25 1 46 -2 46 -7 0 -5 15 -12 33 -15 29 -5 35 -13 51
-56 51 -141 146 -191 267 -139 44 19 52 28 80 85 16 35 34 64 39 64 12 0 45
-48 64 -94 15 -36 15 -40 0 -58 -11 -11 -13 -18 -5 -18 21 0 34 45 21 70 l-12
23 36 -22 c19 -12 48 -24 63 -25 23 -3 27 -8 25 -27 -6 -45 -56 -130 -102
-173 -136 -128 -421 -128 -577 0 -26 21 -43 44 -44 57 l0 22 -16 -22 c-17 -26
-69 -31 -105 -12 -12 7 -61 11 -114 10 -84 -2 -101 1 -168 29 -42 18 -91 42
-110 55 -27 18 -33 20 -29 6 2 -9 -18 -63 -45 -120 l-50 -103 49 -44 c56 -50
115 -81 209 -113 110 -37 104 -22 104 -242 1 -219 -10 -195 117 -259 204 -104
402 -131 624 -85 94 20 179 50 202 73 9 9 19 15 22 13 12 -10 19 59 20 205 1
184 -4 178 152 187 72 5 134 15 189 33 78 24 83 27 100 67 10 23 26 72 35 108
16 65 16 67 -4 107 -28 54 -27 70 2 46 12 -10 16 -12 10 -4 -18 20 -16 35 2
20 9 -7 15 -8 15 -2 0 5 -7 13 -16 16 -23 9 -56 -22 -48 -46 4 -13 0 -18 -13
-18 -15 0 -16 2 -3 10 22 14 -1 12 -46 -4 -66 -23 -193 -29 -328 -16 l-126 13
29 36 c36 46 66 106 76 151 4 18 20 46 35 61 32 33 52 98 54 177 l1 57 -55 0
-55 0 1 117 c2 102 0 116 -14 111 -12 -5 -14 -2 -8 12 7 18 6 18 -15 -1 -21
-18 -21 -17 2 18 16 24 26 32 31 25 6 -9 8 -9 8 1 0 20 -46 105 -75 140 -25
30 -138 92 -166 92 -8 0 15 -14 51 -31 66 -31 113 -68 133 -104 6 -11 -4 -6
-22 13 -36 36 -103 76 -141 86 -24 7 -24 6 2 -9 31 -17 48 -44 48 -74 0 -27
-56 -63 -88 -58 l-23 4 22 -23 c14 -15 25 -20 33 -13 6 5 31 20 56 32 29 15
46 31 48 45 4 29 20 28 34 -3 19 -42 0 -85 -46 -103 -36 -14 -42 -14 -70 2
l-31 18 20 -23 c11 -13 -2 -4 -30 20 -27 24 -49 47 -48 51 1 4 -3 7 -10 7 -7
-1 -34 10 -62 23 -45 22 -65 25 -207 28 l-156 4 64 34 c36 19 98 46 137 59 40
13 61 24 47 24 -14 0 -32 -3 -40 -6z m149 -159 c29 -15 79 -52 110 -82 51 -50
52 -52 11 -20 -79 61 -146 98 -196 107 -69 13 -67 6 5 -15 34 -9 64 -20 67
-25 7 -11 -32 -35 -83 -51 -24 -7 -43 -16 -43 -20 0 -4 -37 11 -83 33 -91 44
-168 58 -218 40 -44 -15 -47 -8 -7 20 37 27 95 35 274 37 101 2 115 0 163 -24z
m336 -47 c-7 -31 -40 -77 -56 -77 -5 0 3 11 16 25 23 22 30 47 26 84 -2 7 3
10 9 6 7 -4 9 -19 5 -38z m-539 -50 c63 -33 90 -52 91 -66 1 -16 -4 -19 -30
-16 -98 12 -120 13 -106 4 23 -14 0 -10 -31 6 -30 15 -42 29 -17 19 7 -2 33 2
58 9 39 12 50 12 70 1 13 -7 29 -13 34 -13 6 0 -19 15 -55 34 -69 38 -81 42
-62 23 19 -19 -90 -38 -150 -27 -29 5 -69 4 -103 -2 -31 -6 -68 -9 -83 -7 -26
4 -26 4 13 22 137 63 149 67 216 63 54 -3 81 -12 155 -50z m293 4 l34 -26 -49
-7 c-27 -4 -63 -8 -81 -10 -17 -1 -29 -6 -27 -10 8 -13 -19 -9 -46 7 -19 11
-21 14 -7 15 9 0 17 4 17 9 0 5 16 15 36 21 19 7 38 18 41 26 7 19 37 10 82
-25z m45 -51 c-6 -6 -28 -13 -50 -15 l-39 -5 45 14 c25 7 47 14 50 15 2 0 -1
-4 -6 -9z m-95 -26 c10 -9 -35 -3 -49 6 -11 8 -7 9 15 4 17 -4 32 -8 34 -10z
m-152 -31 c-3 -3 -22 -5 -42 -5 -20 0 -39 2 -41 5 -3 3 15 5 41 5 26 0 44 -2
42 -5z m448 -8 c-16 -8 -37 -14 -45 -14 -8 0 1 7 20 14 46 18 64 17 25 0z m24
-58 c-1 -31 -1 -31 -9 -7 -11 36 -11 52 0 45 6 -3 10 -21 9 -38z m-716 26 c-7
-2 -19 -2 -25 0 -7 3 -2 5 12 5 14 0 19 -2 13 -5z m-120 -10 c-7 -2 -19 -2
-25 0 -7 3 -2 5 12 5 14 0 19 -2 13 -5z m74 1 c-3 -3 -12 -4 -19 -1 -8 3 -5 6
6 6 11 1 17 -2 13 -5z m730 -24 c6 -14 13 -36 15 -50 3 -24 1 -25 -70 -28 -53
-2 -75 -7 -79 -17 -7 -20 -42 -19 -49 0 -8 19 -119 20 -294 4 -148 -13 -203
-9 -105 9 39 7 113 22 165 33 194 42 375 77 390 75 8 -1 20 -12 27 -26z m-833
-92 c7 -5 4 -8 -6 -8 -10 0 -18 4 -18 9 0 5 -3 18 -6 28 -5 15 -3 15 7 -2 7
-11 17 -23 23 -27z m729 -13 c-3 -9 -8 -14 -10 -11 -3 3 -2 9 2 15 9 16 15 13
8 -4z m150 -81 c32 -52 57 -100 55 -106 -4 -10 -61 81 -125 195 -2 4 -1 7 4 7
4 -1 34 -44 66 -96z m17 51 c17 -25 29 -45 26 -45 -3 0 -19 20 -36 45 -17 25
-29 45 -26 45 3 0 19 -20 36 -45z m-460 18 c0 -9 28 -68 61 -132 34 -64 59
-114 56 -111 -3 3 -43 61 -90 130 l-84 126 28 2 c21 2 29 -2 29 -15z m196 -16
c43 -66 57 -92 48 -82 -21 21 -84 115 -76 115 4 0 16 -15 28 -33z m-233 -108
c54 -103 65 -130 50 -127 -28 5 -156 258 -130 258 7 0 43 -59 80 -131z m-287
14 c1 -60 0 -65 -12 -47 -8 10 -22 25 -32 33 -15 12 -15 13 0 8 15 -5 15 -3 2
28 -18 45 -18 45 14 45 27 0 27 -1 28 -67z m714 -57 c0 -12 -5 -7 -19 24 -11
24 -11 24 3 6 9 -11 16 -24 16 -30z m-678 -303 c2 -24 0 -43 -4 -43 -5 0 -7
26 -7 58 1 61 6 55 11 -15z m-41 10 c-14 -48 -14 -104 -1 -139 6 -15 22 -80
36 -145 19 -92 34 -135 69 -198 48 -86 50 -91 37 -91 -16 0 -92 148 -120 236
-41 127 -58 337 -30 372 17 20 20 7 9 -35z m122 -18 c28 -19 67 -37 85 -41 17
-4 32 -9 32 -12 0 -3 -12 -30 -27 -60 l-27 -55 -23 29 c-12 16 -32 54 -44 84
-12 30 -32 63 -43 72 -36 30 -8 20 47 -17z m584 9 c-3 -3 -12 -4 -19 -1 -8 3
-5 6 6 6 11 1 17 -2 13 -5z m-617 -39 c0 -5 -5 -3 -10 5 -5 8 -10 20 -10 25 0
6 5 3 10 -5 5 -8 10 -19 10 -25z m544 6 c-10 -10 -21 -16 -24 -14 -3 3 4 11
14 19 28 20 33 17 10 -5z m28 -139 c2 -95 -31 -216 -67 -249 -16 -14 -20 -23
-12 -26 7 -3 4 -6 -6 -6 -10 -1 -15 -5 -12 -11 3 -5 0 -10 -7 -10 -9 0 -9 -3
2 -10 12 -8 12 -10 -5 -10 -17 0 -18 -2 -5 -11 12 -8 10 -9 -9 -7 -13 2 -26
-2 -28 -9 -2 -6 4 -10 14 -9 10 2 12 1 5 -1 -7 -3 -10 -8 -7 -13 3 -4 -4 -6
-15 -3 -25 7 -25 8 1 44 11 16 40 71 65 124 49 104 69 194 62 283 -5 51 -4 53
9 28 8 -15 14 -60 15 -104z m-547 -162 c3 -14 -8 2 -23 35 -16 33 -27 63 -25
68 2 4 -1 7 -7 7 -6 0 -8 5 -5 10 3 6 -2 10 -11 10 -17 0 -16 1 1 13 14 11 15
16 5 22 -9 5 -11 4 -6 -3 4 -7 3 -12 -2 -12 -16 0 -22 28 -7 34 10 3 12 13 6
33 -4 15 -5 37 -3 48 4 16 45 -126 77 -265z m19 142 c11 -109 69 -205 140
-232 31 -11 86 -5 86 11 0 5 6 9 14 9 18 0 86 75 119 131 14 24 33 69 40 99 8
30 16 47 18 37 4 -16 8 -15 42 9 l39 26 -17 -26 c-10 -14 -15 -35 -12 -46 3
-11 1 -18 -4 -14 -5 3 -9 0 -9 -5 0 -6 6 -11 13 -12 8 0 8 -2 -2 -6 -11 -5
-11 -7 0 -14 11 -7 11 -9 -2 -9 -23 0 -32 -28 -12 -38 13 -8 13 -13 4 -28 -11
-16 -12 -16 -7 -1 3 9 1 17 -4 17 -6 0 -10 -4 -10 -8 0 -5 -10 -20 -22 -33
-18 -20 -20 -21 -13 -4 14 37 35 108 35 120 0 6 -7 12 -15 12 -16 0 -38 -54
-28 -70 3 -6 1 -7 -5 -3 -12 7 -13 6 -17 -31 -4 -40 -104 -141 -126 -127 -8 4
-9 3 -5 -4 9 -15 -25 -32 -71 -34 -98 -3 -166 80 -203 250 -24 107 -24 108 -3
91 15 -12 16 -12 10 4 -4 10 -7 23 -7 28 0 6 -4 8 -9 5 -5 -4 -7 4 -4 15 5 19
9 15 24 -24 10 -26 21 -68 23 -95z m436 134 c0 -3 -4 -8 -10 -11 -5 -3 -10 -1
-10 4 0 6 5 11 10 11 6 0 10 -2 10 -4z m-69 -49 c-21 -34 -75 -66 -88 -53 -4
3 -12 22 -19 41 l-12 35 42 1 c22 1 52 4 66 8 34 10 35 7 11 -32z m-96 -76 c2
-1 18 4 34 12 17 9 31 12 31 9 -1 -18 -97 -181 -103 -175 -4 3 -7 18 -8 32 0
14 -6 42 -12 61 -11 30 -10 42 8 83 l20 49 13 -34 c8 -18 15 -35 17 -37z
m-168 -79 c-11 -35 -21 -61 -23 -60 -1 2 -16 39 -33 82 -24 62 -26 75 -12 62
25 -22 28 -21 42 21 l12 38 17 -41 c17 -39 17 -43 -3 -102z m100 -24 c-3 -7
-5 -2 -5 12 0 14 2 19 5 13 2 -7 2 -19 0 -25z m-280 0 c-3 -8 -6 -5 -6 6 -1
11 2 17 5 13 3 -3 4 -12 1 -19z m290 -40 c-3 -8 -6 -5 -6 6 -1 11 2 17 5 13 3
-3 4 -12 1 -19z m-257 -43 c0 -5 -5 -3 -10 5 -5 8 -10 20 -10 25 0 6 5 3 10
-5 5 -8 10 -19 10 -25z m40 -30 c-10 -12 -9 -20 4 -39 20 -31 3 -44 -18 -14
-20 29 -20 38 2 54 23 18 27 17 12 -1z m390 4 c0 -5 -5 -7 -12 -3 -7 5 -9 2
-6 -8 4 -8 -2 -21 -13 -29 -10 -7 -19 -19 -19 -25 0 -7 -6 -15 -12 -18 -9 -3
-7 -9 6 -20 11 -9 15 -16 10 -16 -6 0 -15 5 -21 11 -8 8 -17 6 -33 -9 -21 -19
-21 -21 -3 -30 10 -6 14 -14 10 -19 -5 -4 -15 1 -22 11 -13 17 -10 24 31 70
26 28 50 61 55 73 9 23 29 32 29 12z m-345 -45 c9 -15 12 -23 6 -20 -11 7 -35
46 -28 46 3 0 12 -12 22 -26z m-10 -43 c-3 -6 -11 -11 -17 -11 -6 0 -6 6 2 15
14 17 26 13 15 -4z m20 -20 c-3 -6 -11 -11 -17 -11 -6 0 -6 6 2 15 14 17 26
13 15 -4z m112 -3 c-3 -8 -6 -5 -6 6 -1 11 2 17 5 13 3 -3 4 -12 1 -19z m-83
-2 c-3 -8 -13 -17 -22 -21 -13 -5 -13 -2 3 15 21 24 26 25 19 6z m14 -31 c-6
-13 -15 -22 -19 -19 -5 2 -1 14 9 24 22 26 24 25 10 -5z m18 -23 c-18 -16 -18
-16 -6 6 6 13 14 21 18 18 3 -4 -2 -14 -12 -24z m150 -20 c-8 -7 -25 8 -37 31
-11 21 -10 21 15 -2 14 -14 24 -26 22 -29z m-164 -26 c6 4 8 3 5 -3 -10 -16
38 -34 53 -20 10 9 11 9 6 0 -4 -7 -2 -13 4 -13 6 0 9 -4 5 -9 -7 -13 -96 27
-113 51 -7 10 -20 18 -28 18 -14 0 -19 12 -8 23 3 3 19 -8 35 -24 16 -17 34
-27 41 -23z m278 44 c0 -5 -2 -10 -4 -10 -2 0 -12 -3 -22 -7 -16 -6 -17 -5 -4
10 17 19 30 22 30 7z m-155 -10 c3 -5 2 -10 -4 -10 -5 0 -13 5 -16 10 -3 6 -2
10 4 10 5 0 13 -4 16 -10z m113 -34 c-7 -8 -17 -12 -22 -9 -4 3 -2 9 5 14 22
13 31 11 17 -5z m-125 -23 c-7 -2 -19 -2 -25 0 -7 3 -2 5 12 5 14 0 19 -2 13
-5z m65 -17 c-16 -17 -35 -16 -35 1 0 8 6 12 14 9 7 -3 13 -1 13 5 0 6 4 7 10
4 6 -4 5 -11 -2 -19z"/>
<path d="M1281 494 c0 -11 3 -14 6 -6 3 7 2 16 -1 19 -3 4 -6 -2 -5 -13z"/>
<path d="M1129 503 c-13 -16 -12 -17 4 -4 16 13 21 21 13 21 -2 0 -10 -8 -17
-17z"/>
<path d="M982 1868 c-24 -5 -42 -12 -39 -14 2 -2 28 1 57 7 29 6 80 9 114 6
39 -4 52 -3 36 3 -33 11 -115 10 -168 -2z"/>
<path d="M410 1560 c-8 -5 -13 -10 -10 -11 22 -3 80 -6 61 -2 -19 4 -21 7 -10
14 11 7 10 9 -6 9 -11 0 -27 -5 -35 -10z"/>
<path d="M366 1205 c-11 -8 -15 -15 -10 -15 6 0 19 7 30 15 10 8 15 14 9 14
-5 0 -19 -6 -29 -14z"/>
<path d="M1247 1125 c6 -68 -1 -79 -31 -50 -10 10 -17 12 -21 4 -8 -13 4 -26
25 -29 29 -4 60 0 58 8 0 4 2 15 7 25 7 18 -19 92 -36 103 -5 3 -6 -25 -2 -61z"/>
<path d="M557 1133 c-13 -13 -7 -21 13 -16 36 9 51 -3 40 -32 -11 -28 -4 -75
10 -75 5 0 10 17 12 38 l4 37 21 -45 c16 -33 22 -39 22 -23 1 31 -17 74 -41
101 -20 21 -67 30 -81 15z"/>
<path d="M530 1024 c0 -6 7 -19 16 -30 14 -18 14 -18 3 6 -14 31 -19 36 -19
24z"/>
<path d="M61 994 c-17 -38 -6 -42 14 -5 8 17 12 31 7 31 -5 0 -14 -12 -21 -26z"/>
<path d="M1196 982 c-70 -23 -44 -25 39 -3 46 13 60 19 40 19 -16 1 -52 -7
-79 -16z"/>
<path d="M1211 939 c-13 -5 -22 -11 -19 -14 7 -8 78 7 78 16 0 11 -28 10 -59
-2z"/>
</g>
</svg>
